<?xml version="1.0" standalone="no"?>
<!DOCTYPE svg PUBLIC "-//W3C//DTD SVG 20010904//EN"
 "http://www.w3.org/TR/2001/REC-SVG-20010904/DTD/svg10.dtd">
<svg version="1.0" xmlns="http://www.w3.org/2000/svg"
 width="96.000000pt" height="96.000000pt" viewBox="0 0 96.000000 96.000000"
 preserveAspectRatio="xMidYMid meet">

<g transform="translate(0.000000,96.000000) scale(0.100000,-0.100000)"
fill="#000000" stroke="none">
<path d="M414 800 c-102 -21 -195 -95 -237 -189 -17 -37 -22 -66 -22 -146 0
-88 3 -107 27 -157 50 -107 141 -168 274 -183 112 -13 235 27 189 61 -11 8
-28 9 -53 3 -95 -22 -207 -2 -279 50 -117 85 -132 301 -30 417 60 69 105 88
207 88 74 1 92 -3 137 -26 73 -39 112 -97 127 -189 8 -48 -11 -136 -35 -160
-22 -22 -64 -25 -76 -6 -4 6 -10 68 -13 137 -5 125 -5 125 -30 125 -16 0 -29
-8 -37 -25 -7 -14 -13 -19 -13 -13 0 19 -55 43 -98 43 -136 0 -182 -246 -60
-320 54 -33 145 -19 162 26 5 13 11 11 35 -15 56 -60 158 -34 203 51 32 60 33
192 1 260 -29 63 -93 123 -158 147 -64 24 -163 33 -221 21z m117 -259 c49 -50
36 -150 -24 -179 -32 -15 -60 -9 -87 21 -15 16 -20 35 -20 79 0 49 4 63 25 83
33 33 70 32 106 -4z"/>
</g>
</svg>
