<?xml version="1.0" standalone="no"?>
<!DOCTYPE svg PUBLIC "-//W3C//DTD SVG 20010904//EN"
 "http://www.w3.org/TR/2001/REC-SVG-20010904/DTD/svg10.dtd">
<svg version="1.0" xmlns="http://www.w3.org/2000/svg"
 width="96.000000pt" height="96.000000pt" viewBox="0 0 96.000000 96.000000"
 preserveAspectRatio="xMidYMid meet">

<g transform="translate(0.000000,96.000000) scale(0.100000,-0.100000)"
fill="#000000" stroke="none">
<path d="M379 782 c-72 -37 -111 -93 -117 -166 -7 -81 4 -118 53 -191 l43 -65
-62 0 c-68 0 -81 -8 -124 -81 -28 -47 -28 -74 3 -104 l24 -25 281 0 281 0 24
25 c31 30 31 57 3 104 -38 64 -58 81 -97 80 -28 0 -42 -7 -59 -30 l-24 -29 49
0 c47 0 50 -2 71 -39 12 -21 22 -41 22 -45 0 -3 -121 -6 -270 -6 -148 0 -270
3 -270 6 0 4 10 24 22 45 l22 39 79 0 c70 0 83 -3 109 -25 16 -14 35 -25 41
-25 19 0 139 133 177 196 32 54 35 64 35 140 0 75 -3 86 -30 126 -20 28 -49
52 -84 71 -73 36 -131 36 -202 -1z m189 -59 c83 -61 95 -149 36 -250 -20 -34
-57 -81 -81 -105 l-44 -43 -55 58 c-118 127 -137 245 -52 324 12 12 34 27 48
32 37 16 117 7 148 -16z"/>
<path d="M450 616 c-28 -35 11 -93 48 -70 35 22 22 84 -18 84 -10 0 -23 -7
-30 -14z"/>
</g>
</svg>
