<?xml version="1.0" standalone="no"?>
<!DOCTYPE svg PUBLIC "-//W3C//DTD SVG 20010904//EN"
 "http://www.w3.org/TR/2001/REC-SVG-20010904/DTD/svg10.dtd">
<svg version="1.0" xmlns="http://www.w3.org/2000/svg"
 width="1366.000000pt" height="768.000000pt" viewBox="0 0 1366.000000 768.000000"
 preserveAspectRatio="xMidYMid meet">

<g transform="translate(0.000000,768.000000) scale(0.100000,-0.100000)"
fill="#000000" stroke="none">
<path d="M10041 5051 c-7 -13 -11 -195 -11 -540 l0 -521 -3045 0 -3045 0 -2
533 -3 532 -104 3 c-67 2 -108 -1 -117 -9 -12 -10 -14 -185 -14 -1130 0 -1003
2 -1119 16 -1133 12 -12 37 -16 107 -16 51 0 98 4 104 8 10 6 13 126 15 523
l3 514 598 0 c328 0 1697 -1 3042 -3 l2445 -2 0 -498 c0 -386 3 -502 13 -515
10 -15 27 -17 117 -15 l105 3 0 1140 0 1140 -107 3 c-98 2 -108 1 -117 -17z"/>
<path d="M10432 4848 c-9 -9 -12 -215 -12 -922 0 -501 4 -917 8 -924 6 -9 37
-12 118 -10 l109 3 0 930 0 930 -105 3 c-73 2 -109 -1 -118 -10z"/>
<path d="M3327 4843 c-4 -3 -7 -421 -7 -929 0 -831 2 -922 16 -928 9 -3 58 -6
109 -6 83 0 96 2 105 19 11 21 15 1806 4 1835 -5 13 -25 16 -113 16 -59 0
-111 -3 -114 -7z"/>
<path d="M2942 4612 c-10 -7 -12 -153 -10 -698 l3 -689 109 -3 c81 -2 112 1
118 10 4 7 8 317 8 689 0 512 -3 678 -12 687 -14 14 -195 17 -216 4z"/>
<path d="M10815 4608 c-3 -7 -4 -319 -3 -693 l3 -680 115 0 115 0 0 690 0 690
-113 3 c-84 2 -114 -1 -117 -10z"/>
<path d="M5464 4410 c-32 -12 -52 -76 -69 -212 -8 -67 -15 -124 -15 -125 0 -2
20 -3 44 -3 l43 0 7 70 c4 39 11 70 15 70 9 0 21 -59 21 -107 0 -32 1 -33 45
-33 l46 0 -5 33 c-3 17 -10 74 -16 125 -12 103 -33 168 -61 182 -21 12 -27 12
-55 0z"/>
<path d="M9007 4409 c-34 -20 -48 -75 -54 -215 l-6 -134 46 0 47 0 0 47 c0 52
11 49 30 -9 11 -38 12 -38 65 -38 l53 0 -43 133 c-54 166 -63 188 -82 209 -18
21 -30 22 -56 7z"/>
<path d="M4146 4384 c-3 -9 -6 -83 -6 -165 l0 -149 45 0 45 0 0 55 0 55 79 0
c71 0 82 -2 95 -22 9 -12 16 -37 16 -55 0 -32 1 -33 45 -33 l45 0 0 40 c0 53
-28 186 -46 221 -31 60 -55 69 -189 69 -103 0 -124 -3 -129 -16z"/>
<path d="M4767 4370 c-42 -37 -74 -107 -93 -207 -8 -41 -14 -79 -14 -84 0 -5
20 -9 44 -9 42 0 45 2 56 35 16 48 53 75 104 75 54 0 82 -21 97 -70 12 -39 14
-40 56 -40 41 0 43 2 43 28 0 42 -36 174 -60 222 -29 56 -71 80 -142 80 -49 0
-62 -4 -91 -30z"/>
<path d="M5204 4313 c3 -49 9 -123 12 -165 l6 -78 45 0 45 0 -6 98 c-4 53 -9
127 -12 165 l-6 67 -45 0 -45 0 6 -87z"/>
<path d="M5686 4338 c-3 -35 -8 -109 -12 -165 l-7 -103 45 0 45 0 7 103 c4 56
9 130 12 165 l6 62 -45 0 -45 0 -6 -62z"/>
<path d="M5934 4365 c-10 -24 -14 -73 -14 -165 l0 -130 170 0 c107 0 170 4
170 10 0 6 -48 10 -125 10 l-125 0 0 45 0 45 125 0 125 0 0 110 0 110 -156 0
-155 0 -15 -35z"/>
<path d="M6426 4384 c-3 -9 -6 -83 -6 -165 l0 -149 45 0 45 0 0 60 0 60 79 0
c93 0 105 -9 99 -75 l-3 -45 49 0 49 0 -5 103 c-6 113 -25 176 -66 207 -22 18
-40 20 -152 20 -107 0 -129 -3 -134 -16z"/>
<path d="M6940 4235 l0 -165 45 0 45 0 0 165 0 165 -45 0 -45 0 0 -165z"/>
<path d="M7430 4235 l0 -165 45 0 45 0 0 165 0 165 -45 0 -45 0 0 -165z"/>
<path d="M7714 4379 c-16 -18 -19 -40 -22 -165 l-3 -144 40 0 c41 0 41 0 41
39 0 72 -2 71 136 71 l124 0 0 110 0 110 -148 0 c-139 0 -150 -1 -168 -21z"/>
<path d="M8180 4290 l0 -110 70 0 70 0 0 -60 0 -60 45 0 45 0 0 60 0 60 70 0
70 0 0 110 0 110 -185 0 -185 0 0 -110z"/>
<path d="M8700 4230 l0 -170 45 0 45 0 0 170 0 170 -45 0 -45 0 0 -170z"/>
<path d="M9270 4230 l0 -170 45 0 45 0 0 170 0 170 -45 0 -45 0 0 -170z"/>
<path d="M9627 4370 c-40 -35 -73 -105 -93 -199 -22 -107 -21 -111 29 -111 42
0 44 1 56 39 19 65 49 81 152 81 l89 0 0 110 0 110 -100 0 c-96 0 -100 -1
-133 -30z"/>
<path d="M4140 3570 l0 -170 45 0 45 0 0 105 0 105 84 0 c70 0 88 3 111 22 25
20 55 73 55 98 0 6 -60 10 -170 10 l-170 0 0 -170z"/>
<path d="M4660 3718 c1 -50 32 -166 60 -224 38 -79 72 -98 158 -92 42 3 68 10
83 24 47 42 99 187 99 277 l0 38 -42 -3 c-38 -3 -42 -6 -55 -42 -21 -63 -39
-76 -100 -76 -62 0 -85 18 -104 79 -12 40 -13 41 -56 41 -38 0 -43 -3 -43 -22z"/>
<path d="M5236 3732 c-12 -19 14 -245 33 -288 37 -83 102 -80 135 8 16 42 47
266 39 281 -2 4 -22 7 -43 7 l-38 0 -7 -65 c-4 -36 -11 -65 -15 -65 -5 0 -12
29 -15 65 l-7 65 -39 0 c-21 0 -40 -4 -43 -8z"/>
<path d="M5530 3738 c0 -44 34 -268 44 -292 31 -74 97 -81 129 -13 20 42 37
149 37 240 l0 67 -39 0 c-35 0 -39 -3 -45 -31 -3 -17 -6 -47 -6 -65 0 -51 -18
-41 -25 14 -3 26 -7 54 -8 62 -2 10 -16 16 -45 18 -23 2 -42 2 -42 0z"/>
<path d="M5927 3733 c-14 -13 -7 -262 7 -298 l15 -35 155 0 156 0 0 105 0 104
-122 3 -123 3 -3 48 -3 47 125 0 c105 0 126 2 126 15 0 13 -25 15 -163 15 -90
0 -167 -3 -170 -7z"/>
<path d="M6420 3570 l0 -170 45 0 45 0 0 150 0 150 78 0 c47 0 83 -5 90 -12 8
-8 12 -52 12 -134 0 -67 3 -129 6 -138 4 -11 19 -16 45 -16 l39 0 -2 168 -3
167 -177 3 -178 2 0 -170z"/>
<path d="M6943 3628 c7 -135 19 -180 54 -208 23 -18 40 -20 154 -20 l129 0 0
105 0 105 -108 0 c-129 0 -140 6 -144 75 l-3 50 -44 3 -44 3 6 -113z"/>
<path d="M7437 3733 c-4 -3 -7 -80 -7 -170 l0 -163 45 0 45 0 0 170 0 170 -38
0 c-21 0 -42 -3 -45 -7z"/>
<path d="M7690 3570 l0 -170 40 0 40 0 0 140 0 140 131 0 130 0 -3 28 -3 27
-167 3 -168 2 0 -170z"/>
<path d="M8320 3565 l0 -165 45 0 45 0 0 165 0 165 -45 0 -45 0 0 -165z"/>
<path d="M8700 3565 l0 -165 45 0 45 0 0 165 0 165 -45 0 -45 0 0 -165z"/>
<path d="M8950 3565 l0 -165 45 0 45 0 0 165 0 165 -45 0 -45 0 0 -165z"/>
<path d="M9140 3727 c0 -9 99 -297 108 -314 25 -46 72 -36 92 19 7 18 15 93
17 166 l6 132 -46 0 c-42 0 -46 -2 -49 -27 l-4 -28 -12 28 c-10 24 -16 27 -62
27 -27 0 -50 -1 -50 -3z"/>
<path d="M9520 3713 c0 -28 29 -155 42 -188 21 -53 59 -103 87 -115 15 -6 66
-10 117 -8 l89 3 3 163 2 162 -40 0 -40 0 0 -55 0 -56 -62 3 -63 3 -25 52
c-24 52 -26 53 -67 53 -34 0 -43 -4 -43 -17z"/>
<path d="M8491 3028 c-17 -9 -41 -48 -77 -128 -29 -63 -53 -118 -54 -122 0 -5
18 -8 39 -8 31 0 41 4 46 20 6 18 15 20 85 20 70 0 79 -2 85 -20 5 -16 15 -20
46 -20 21 0 39 2 39 5 0 12 -102 231 -113 242 -19 19 -69 25 -96 11z m69 -105
c11 -25 18 -48 16 -50 -2 -2 -24 -3 -49 -1 l-46 3 21 48 c11 26 24 47 29 47 4
0 17 -21 29 -47z"/>
<path d="M5173 3008 c-12 -13 -22 -30 -23 -38 -10 -69 22 -92 132 -100 114 -7
102 -24 -22 -30 l-105 -5 -3 -32 -3 -33 121 0 c115 0 122 1 145 25 33 32 33
74 0 105 -21 20 -38 24 -110 28 -63 3 -85 8 -85 18 0 11 23 14 105 14 l105 0
0 35 0 35 -118 0 c-110 0 -120 -2 -139 -22z"/>
<path d="M5647 3023 c-4 -3 -7 -62 -7 -130 l0 -123 35 0 c32 0 35 3 35 29 l0
28 87 6 c82 5 89 7 115 36 39 43 38 92 -1 132 -29 29 -31 29 -144 29 -62 0
-117 -3 -120 -7z m218 -93 c0 -24 -2 -25 -77 -28 l-78 -3 0 31 0 31 78 -3 c75
-3 77 -4 77 -28z"/>
<path d="M6150 3011 c-14 -28 -13 -214 2 -229 8 -8 54 -12 140 -12 l128 0 0
35 0 35 -105 0 c-86 0 -105 3 -105 15 0 11 20 15 103 17 101 3 102 3 102 28 0
25 -1 25 -102 28 -83 2 -103 6 -103 17 0 12 19 15 105 15 l105 0 0 35 0 35
-130 0 c-118 0 -130 -2 -140 -19z"/>
<path d="M6679 3007 c-22 -15 -39 -38 -49 -65 -13 -37 -13 -47 0 -84 24 -69
63 -88 176 -88 l94 0 0 35 0 35 -89 0 c-82 0 -91 2 -105 22 -21 30 -20 54 4
78 17 17 33 20 105 20 l85 0 0 35 0 35 -94 0 c-80 0 -98 -3 -127 -23z"/>
<path d="M7153 3010 c-61 -37 -81 -116 -43 -177 30 -50 66 -63 170 -63 l91 0
-3 33 -3 32 -85 3 c-94 3 -120 17 -120 62 0 45 26 59 120 62 l85 3 3 33 3 32
-93 0 c-75 0 -99 -4 -125 -20z"/>
<path d="M7570 2900 l0 -130 35 0 35 0 0 50 0 50 80 0 80 0 0 -50 0 -50 35 0
35 0 0 130 0 130 -35 0 c-35 0 -35 0 -35 -45 l0 -45 -80 0 -80 0 0 45 c0 45 0
45 -35 45 l-35 0 0 -130z"/>
<path d="M8080 2900 l0 -130 34 0 35 0 3 130 3 130 -37 0 -38 0 0 -130z"/>
</g>
</svg>
